<svg width="36" height="31" viewBox="0 0 36 31" fill="none" xmlns="http://www.w3.org/2000/svg">
<path d="M35.1574 28.8232H27.7205C27.8553 28.4958 27.9299 28.1371 27.9299 27.7615V22.7273C27.9299 20.5365 26.1483 18.7549 23.9575 18.7549H22.59V16.2125L26.2807 19.0005C26.743 19.352 27.2991 19.5373 27.8818 19.5373C28.7124 19.5373 29.5044 19.1425 30.0028 18.4828C30.8864 17.3152 30.6553 15.6444 29.4852 14.7608L22.7633 9.68327C22.2866 9.32214 21.692 9.12231 21.0949 9.12231H16.0583C15.4612 9.12231 14.869 9.31973 14.3899 9.68086L7.6608 14.7584C7.09503 15.1845 6.72908 15.8081 6.63038 16.5111C6.53167 17.2165 6.71223 17.9147 7.14077 18.4828C7.56932 19.051 8.19287 19.417 8.89587 19.5157C9.59888 19.6144 10.2995 19.4314 10.8628 19.0029L14.5367 16.2294V20.1272L7.04447 25.6573C6.33906 26.1557 5.91774 26.9718 5.91774 27.841C5.91774 28.1828 5.98275 28.5151 6.10553 28.8281H0.84264C0.377984 28.8281 0 29.206 0 29.6707C0 30.1354 0.377984 30.5133 0.84264 30.5133H8.58289C8.58289 30.5133 8.59012 30.5133 8.59493 30.5133C8.59975 30.5133 8.60215 30.5133 8.60697 30.5133H35.1574C35.622 30.5133 36 30.1354 36 29.6707C36 29.206 35.622 28.8281 35.1574 28.8281V28.8232ZM11.7296 28.8232L17.9747 24.143C17.9964 24.1285 18.0205 24.1189 18.0469 24.1189H22.5731V27.8289C22.5731 28.1756 22.6405 28.5103 22.7633 28.8232H11.732H11.7296ZM26.247 27.7615C26.247 28.3104 25.8354 28.7847 25.3394 28.8208C25.0433 28.8377 24.7568 28.7414 24.5497 28.5343C24.3619 28.3465 24.2584 28.0962 24.2584 27.8289V23.2763C24.2584 22.8116 23.8804 22.4336 23.4158 22.4336H18.0469C17.6593 22.4336 17.2741 22.5612 16.9636 22.7948L9.17033 28.6355C8.95366 28.7919 8.69123 28.8545 8.42881 28.8088C8.16639 28.7655 7.93767 28.621 7.786 28.4067C7.66803 28.2406 7.60543 28.0432 7.60543 27.8362C7.60543 27.5135 7.75951 27.2126 8.03397 27.0176L15.8826 21.225C16.0968 21.0661 16.2244 20.8133 16.2244 20.5461V14.5321C16.2244 14.2119 16.0439 13.9205 15.7574 13.7785C15.6394 13.7183 15.5094 13.6894 15.3818 13.6894C15.2012 13.6894 15.0231 13.7472 14.8738 13.8604L9.84685 17.6571C9.6398 17.8135 9.3846 17.881 9.12941 17.8448C8.8718 17.8087 8.64308 17.6763 8.48659 17.4669C8.3301 17.2598 8.26269 17.0022 8.2988 16.7446C8.33492 16.487 8.46733 16.2607 8.67438 16.1042L15.4059 11.0243C15.5937 10.8822 15.8248 10.8052 16.0583 10.8052H21.0949C21.3284 10.8052 21.562 10.8822 21.7473 11.0243L28.4692 16.1018C28.8977 16.4244 28.982 17.0359 28.6594 17.4645C28.474 17.71 28.1923 17.8497 27.8818 17.8497C27.6675 17.8497 27.4653 17.7822 27.2967 17.6546L22.2553 13.8459C22.0001 13.6533 21.6583 13.622 21.3718 13.7641C21.0853 13.9061 20.9047 14.1974 20.9047 14.5176V19.5951C20.9047 20.0598 21.2827 20.4378 21.7473 20.4378H23.9575C25.219 20.4378 26.2446 21.4634 26.2446 22.7249V27.7591L26.247 27.7615Z" fill="#68BEDA"/>
<path d="M18.5647 8.60481C20.9409 8.60481 22.8718 6.67396 22.8718 4.30253C22.8718 1.93109 20.9385 0.000244141 18.5647 0.000244141C16.1908 0.000244141 14.2576 1.93109 14.2576 4.30253C14.2576 6.67396 16.1908 8.60481 18.5647 8.60481ZM18.5647 1.68552C20.0116 1.68552 21.1865 2.86041 21.1865 4.30253C21.1865 5.74464 20.0092 6.91953 18.5647 6.91953C17.1201 6.91953 15.9428 5.74464 15.9428 4.30253C15.9428 2.86041 17.1201 1.68552 18.5647 1.68552Z" fill="#68BEDA"/>
</svg>
