<svg width="23" height="39" viewBox="0 0 23 39" fill="none" xmlns="http://www.w3.org/2000/svg">
<g clip-path="url(#clip0_2620_562)">
<path fill-rule="evenodd" clip-rule="evenodd" d="M6.86269 27.6542H0.883367C0.56062 27.6542 0.263352 27.4759 0.106225 27.1913C-0.0466552 26.9068 -0.0381618 26.5628 0.135952 26.2911L4.24249 19.8701V16.099C4.24249 15.6107 4.63743 15.2115 5.1258 15.2115H8.48916V12.965C8.48916 12.4766 8.88411 12.0817 9.37247 12.0817H10.6125V0.883187C10.6125 0.394819 11.0074 -0.00012207 11.4958 -0.00012207C11.9842 -0.00012207 12.3791 0.394819 12.3791 0.883187V12.0817H13.6192C14.1075 12.0817 14.5025 12.4766 14.5025 12.965V15.2115H17.8616C18.3499 15.2115 18.7449 15.6064 18.7449 16.099V19.8701L22.8557 26.2911C23.0298 26.5628 23.0425 26.9068 22.8854 27.1913C22.7283 27.4759 22.431 27.6542 22.1083 27.6542H16.1289C15.3178 32.6144 7.66956 32.6144 6.85419 27.6542H6.86269ZM6.01335 19.2416H16.9825V16.9823H6.01335V19.2416ZM15.3221 25.8834H20.4988L17.3817 21.0124H5.61416L2.4971 25.8834H15.3221ZM12.7401 13.8525H10.26V15.2157H12.7401V13.8525ZM8.68027 27.6542C9.43193 30.3084 13.5682 30.3084 14.3199 27.6542H8.68027ZM12.3834 37.4046C12.3834 37.893 11.9884 38.2922 11.5001 38.2922C11.0117 38.2922 10.6167 37.8972 10.6167 37.4046V33.8331C10.6167 33.3448 11.0117 32.9498 11.5001 32.9498C11.9884 32.9498 12.3834 33.3448 12.3834 33.8331V37.4046ZM17.5855 35.4809C17.8191 35.9098 17.662 36.4491 17.2331 36.6827C16.8042 36.9162 16.2691 36.7591 16.0313 36.3344L14.3368 33.2386C14.1033 32.8097 14.2604 32.2746 14.6893 32.0368C15.1182 31.8032 15.6533 31.9604 15.8911 32.385L17.5855 35.4809ZM21.157 31.0558C21.5732 31.3106 21.7048 31.8542 21.4543 32.2704C21.1995 32.6865 20.6559 32.8182 20.2397 32.5676L17.3053 30.7798C16.8891 30.525 16.7574 29.9814 17.008 29.5652C17.2628 29.1491 17.8064 29.0174 18.2225 29.268L21.157 31.0558ZM6.96885 36.3302C6.73529 36.7591 6.19596 36.9162 5.76705 36.6784C5.33813 36.4449 5.181 35.9055 5.41457 35.4766L7.10899 32.3808C7.34256 31.9519 7.88189 31.7947 8.3108 32.0326C8.73972 32.2661 8.89684 32.8055 8.66328 33.2344L6.96885 36.3302ZM2.76889 32.5676C2.35272 32.8224 1.8049 32.6908 1.55434 32.2704C1.29954 31.8542 1.43119 31.3064 1.85161 31.0558L4.79031 29.268C5.20648 29.0132 5.75006 29.1448 6.00486 29.5652C6.25966 29.9814 6.12801 30.5292 5.70759 30.7798L2.77314 32.5676H2.76889Z" fill="#68BEDA"/>
</g>
<defs>
<clipPath id="clip0_2620_562">
<rect width="23" height="38.2923" fill="white"/>
</clipPath>
</defs>
</svg>
