<svg width="29" height="29" viewBox="0 0 29 29" fill="none" xmlns="http://www.w3.org/2000/svg">
<path fill-rule="evenodd" clip-rule="evenodd" d="M24.4739 24.8571C24.1632 25.7168 23.6661 26.4936 23.0032 27.1564C21.8225 28.3371 20.2171 29 18.5496 29H15.6186C13.9511 29 12.3457 28.3371 11.165 27.1564C9.98429 25.9757 9.32143 24.3704 9.32143 22.7029V17.5968C9.15571 17.5968 8.97964 17.6071 8.80357 17.6071C3.94607 17.6071 0 13.6611 0 8.80357C0 3.94607 3.94607 0 8.80357 0C13.6611 0 17.6071 3.94607 17.6071 8.80357C17.6071 10.0982 17.3275 11.3204 16.8304 12.4286H21.75C23.4693 12.4286 24.8571 13.8164 24.8571 15.5357V16.5714H25.8929C27.6121 16.5714 29 17.9593 29 19.6786V21.3771C29 23.3036 27.4361 24.8571 25.52 24.8571H24.4739ZM22.7857 22.6925V15.5357C22.7857 14.9661 22.3196 14.5 21.75 14.5H12.4286C12.4286 14.5 12.4079 14.5 12.3871 14.5C12.0557 14.5104 11.7657 14.6761 11.5793 14.935C11.455 15.1007 11.3929 15.3079 11.3929 15.5357V22.6925C11.3929 23.8111 11.8382 24.8882 12.6357 25.6857C13.4332 26.4832 14.5 26.9286 15.6289 26.9286H18.56C19.6786 26.9286 20.7557 26.4832 21.5532 25.6857C22.3507 24.8882 22.7961 23.8214 22.7961 22.6925H22.7857ZM24.8571 22.7857H25.52C26.2968 22.7857 26.9286 22.1539 26.9286 21.3771V19.6786C26.9286 19.1089 26.4625 18.6429 25.8929 18.6429H24.8571V22.7857ZM14.4793 12.4286C15.1525 11.3825 15.5357 10.1396 15.5357 8.80357C15.5357 5.08536 12.5218 2.07143 8.80357 2.07143C5.08536 2.07143 2.07143 5.08536 2.07143 8.80357C2.07143 12.5218 5.08536 15.5357 8.80357 15.5357C8.97964 15.5357 9.15571 15.5357 9.32143 15.515C9.32143 13.8061 10.7196 12.4286 12.4286 12.4286H14.4793ZM7.76786 5.17857C7.76786 4.60893 8.23393 4.14286 8.80357 4.14286C9.37321 4.14286 9.83929 4.60893 9.83929 5.17857V9.32143C9.83929 9.65286 9.68393 9.96357 9.41464 10.15C9.15571 10.3468 8.81393 10.3986 8.49286 10.3054L5.12679 9.26964C4.57786 9.10393 4.2775 8.52393 4.44321 7.975C4.60893 7.42607 5.18893 7.12571 5.73786 7.29143L7.76786 7.91286V5.16821V5.17857Z" fill="#68BEDA"/>
</svg>
